# xmcd
#
# Track frame offsets:
#	150
#	713
#	15149
#	30750
#	47878
#	81225
#	98796
#	120163
#	130871
#	146732
#	150528
#	171283
#	178368
#	205609
#	219269
#	242594
#	250018
#	260882
#	266523
#	302248
#	326244
#	338220
#
# Disc length: 4513 seconds
#
# Revision: 2
# Processed by: cddbd v1.5.2PL0 Copyright (c) Steve Scherf et al.
# Submitted via: EasyCDDAExtractor 16.0.6.1
#
DISCID=28119f16
DTITLE=Morten Ramsland  - Hundskoepfe
DYEAR=2006
DGENRE=Hörbuch
TTITLE0=701
TTITLE1=702
TTITLE2=703
TTITLE3=704
TTITLE4=705
TTITLE5=706
TTITLE6=707
TTITLE7=708
TTITLE8=709
TTITLE9=710
TTITLE10=711
TTITLE11=712
TTITLE12=713
TTITLE13=714
TTITLE14=715
TTITLE15=716
TTITLE16=717
TTITLE17=718
TTITLE18=719
TTITLE19=720
TTITLE20=721
TTITLE21=722
EXTD=
EXTT0=
EXTT1=
EXTT2=
EXTT3=
EXTT4=
EXTT5=
EXTT6=
EXTT7=
EXTT8=
EXTT9=
EXTT10=
EXTT11=
EXTT12=
EXTT13=
EXTT14=
EXTT15=
EXTT16=
EXTT17=
EXTT18=
EXTT19=
EXTT20=
EXTT21=
PLAYORDER=
